<?xml version="1.0" encoding="UTF-8" standalone="no"?>
<!DOCTYPE svg PUBLIC "-//W3C//DTD SVG 1.1//EN"
 "http://www.w3.org/Graphics/SVG/1.1/DTD/svg11.dtd">
<!-- Generated by graphviz version 2.40.1 (20161225.0304)
 -->
<!-- Title: G Pages: 1 -->
<svg width="1161pt" height="680pt"
 viewBox="0.00 0.00 1161.45 680.00" xmlns="http://www.w3.org/2000/svg" xmlns:xlink="http://www.w3.org/1999/xlink">
<g id="graph0" class="graph" transform="scale(1 1) rotate(0) translate(4 676)">
<title>G</title>
<polygon fill="#ffffff" stroke="transparent" points="-4,4 -4,-676 1157.4452,-676 1157.4452,4 -4,4"/>
<g id="clust1" class="cluster">
<title>cluster_root</title>
<g id="a_clust1"><a xlink:title="eventq_index=0&#10;full_system=false&#10;sim_quantum=0&#10;time_sync_enable=false&#10;time_sync_period=100000000000&#10;time_sync_spin_threshold=100000000">
<path fill="#bab6ae" stroke="#000000" d="M24.4452,-8C24.4452,-8 1133.4452,-8 1133.4452,-8 1139.4452,-8 1145.4452,-14 1145.4452,-20 1145.4452,-20 1145.4452,-652 1145.4452,-652 1145.4452,-658 1139.4452,-664 1133.4452,-664 1133.4452,-664 24.4452,-664 24.4452,-664 18.4452,-664 12.4452,-658 12.4452,-652 12.4452,-652 12.4452,-20 12.4452,-20 12.4452,-14 18.4452,-8 24.4452,-8"/>
<text text-anchor="middle" x="578.9452" y="-648.8" font-family="Arial" font-size="14.00" fill="#000000">root </text>
<text text-anchor="middle" x="578.9452" y="-633.8" font-family="Arial" font-size="14.00" fill="#000000">: Root</text>
</a>
</g>
</g>
<g id="clust2" class="cluster">
<title>cluster_system</title>
<g id="a_clust2"><a xlink:title="auto_unlink_shared_backstore=false&#10;cache_line_size=64&#10;eventq_index=0&#10;exit_on_work_items=false&#10;init_param=0&#10;m5ops_base=0&#10;mem_mode=timing&#10;mem_ranges=0:21474836480&#10;memories=system.mem_ctrls.dram&#10;mmap_using_noreserve=false&#10;multi_thread=false&#10;&#10;um_work_ids=16&#10;&#13;eadfile=&#10;&#13;edirect_paths=system.redirect_paths0 system.redirect_paths1 system.redirect_paths2&#10;shadow_rom_ranges=&#10;shared_backstore=&#10;symbolfile=&#10;thermal_components=&#10;thermal_model=Null&#10;work_begin_ckpt_count=0&#10;work_begin_cpu_id_exit=&#45;1&#10;work_begin_exit_count=0&#10;work_cpus_ckpt_count=0&#10;work_end_ckpt_count=0&#10;work_end_exit_count=0&#10;work_item_id=&#45;1&#10;workload=system.workload">
<path fill="#e4e7eb" stroke="#000000" d="M32.4452,-16C32.4452,-16 1125.4452,-16 1125.4452,-16 1131.4452,-16 1137.4452,-22 1137.4452,-28 1137.4452,-28 1137.4452,-606 1137.4452,-606 1137.4452,-612 1131.4452,-618 1125.4452,-618 1125.4452,-618 32.4452,-618 32.4452,-618 26.4452,-618 20.4452,-612 20.4452,-606 20.4452,-606 20.4452,-28 20.4452,-28 20.4452,-22 26.4452,-16 32.4452,-16"/>
<text text-anchor="middle" x="578.9452" y="-602.8" font-family="Arial" font-size="14.00" fill="#000000">system </text>
<text text-anchor="middle" x="578.9452" y="-587.8" font-family="Arial" font-size="14.00" fill="#000000">: System</text>
</a>
</g>
</g>
<g id="clust4" class="cluster">
<title>cluster_system_cpu</title>
<g id="a_clust4"><a xlink:title="branchPred=Null&#10;checker=Null&#10;clk_domain=system.cpu_clk_domain&#10;cpu_id=0&#10;decoder=system.cpu.decoder&#10;do_checkpoint_insts=true&#10;do_statistics_insts=true&#10;eventq_index=0&#10;function_trace=false&#10;function_trace_start=0&#10;interrupts=system.cpu.interrupts&#10;isa=system.cpu.isa&#10;max_insts_all_threads=0&#10;max_insts_any_thread=0&#10;mmu=system.cpu.mmu&#10;&#10;umThreads=1&#10;power_gating_on_idle=false&#10;power_model=&#10;power_state=system.cpu.power_state&#10;progress_interval=0&#10;pwr_gating_latency=300&#10;simpoint_start_insts=&#10;socket_id=0&#10;switched_out=false&#10;syscallRetryLatency=10000&#10;system=system&#10;tracer=system.cpu.tracer&#10;workload=system.cpu.workload">
<path fill="#bbc6d9" stroke="#000000" d="M112.4452,-24C112.4452,-24 1022.4452,-24 1022.4452,-24 1028.4452,-24 1034.4452,-30 1034.4452,-36 1034.4452,-36 1034.4452,-378 1034.4452,-378 1034.4452,-384 1028.4452,-390 1022.4452,-390 1022.4452,-390 112.4452,-390 112.4452,-390 106.4452,-390 100.4452,-384 100.4452,-378 100.4452,-378 100.4452,-36 100.4452,-36 100.4452,-30 106.4452,-24 112.4452,-24"/>
<text text-anchor="middle" x="567.4452" y="-374.8" font-family="Arial" font-size="14.00" fill="#000000">cpu </text>
<text text-anchor="middle" x="567.4452" y="-359.8" font-family="Arial" font-size="14.00" fill="#000000">: X86TimingSimpleCPU</text>
</a>
</g>
</g>
<g id="clust5" class="cluster">
<title>cluster_system_cpu_mmu</title>
<g id="a_clust5"><a xlink:title="dtb=system.cpu.mmu.dtb&#10;eventq_index=0&#10;itb=system.cpu.mmu.itb">
<path fill="#bab6ae" stroke="#000000" d="M660.4452,-146C660.4452,-146 1014.4452,-146 1014.4452,-146 1020.4452,-146 1026.4452,-152 1026.4452,-158 1026.4452,-158 1026.4452,-332 1026.4452,-332 1026.4452,-338 1020.4452,-344 1014.4452,-344 1014.4452,-344 660.4452,-344 660.4452,-344 654.4452,-344 648.4452,-338 648.4452,-332 648.4452,-332 648.4452,-158 648.4452,-158 648.4452,-152 654.4452,-146 660.4452,-146"/>
<text text-anchor="middle" x="837.4452" y="-328.8" font-family="Arial" font-size="14.00" fill="#000000">mmu </text>
<text text-anchor="middle" x="837.4452" y="-313.8" font-family="Arial" font-size="14.00" fill="#000000">: X86MMU</text>
</a>
</g>
</g>
<g id="clust6" class="cluster">
<title>cluster_system_cpu_mmu_itb</title>
<g id="a_clust6"><a xlink:title="entry_type=instruction&#10;eventq_index=0&#10;&#10;ext_level=Null&#10;size=64&#10;system=system&#10;walker=system.cpu.mmu.itb.walker">
<path fill="#9f9c95" stroke="#000000" d="M668.4452,-154C668.4452,-154 821.4452,-154 821.4452,-154 827.4452,-154 833.4452,-160 833.4452,-166 833.4452,-166 833.4452,-286 833.4452,-286 833.4452,-292 827.4452,-298 821.4452,-298 821.4452,-298 668.4452,-298 668.4452,-298 662.4452,-298 656.4452,-292 656.4452,-286 656.4452,-286 656.4452,-166 656.4452,-166 656.4452,-160 662.4452,-154 668.4452,-154"/>
<text text-anchor="middle" x="744.9452" y="-282.8" font-family="Arial" font-size="14.00" fill="#000000">itb </text>
<text text-anchor="middle" x="744.9452" y="-267.8" font-family="Arial" font-size="14.00" fill="#000000">: X86TLB</text>
</a>
</g>
</g>
<g id="clust7" class="cluster">
<title>cluster_system_cpu_mmu_itb_walker</title>
<g id="a_clust7"><a xlink:title="clk_domain=system.cpu_clk_domain&#10;eventq_index=0&#10;&#10;um_squash_per_cycle=4&#10;power_model=&#10;power_state=system.cpu.mmu.itb.walker.power_state&#10;system=system">
<path fill="#84827c" stroke="#000000" d="M676.4452,-162C676.4452,-162 813.4452,-162 813.4452,-162 819.4452,-162 825.4452,-168 825.4452,-174 825.4452,-174 825.4452,-240 825.4452,-240 825.4452,-246 819.4452,-252 813.4452,-252 813.4452,-252 676.4452,-252 676.4452,-252 670.4452,-252 664.4452,-246 664.4452,-240 664.4452,-240 664.4452,-174 664.4452,-174 664.4452,-168 670.4452,-162 676.4452,-162"/>
<text text-anchor="middle" x="744.9452" y="-236.8" font-family="Arial" font-size="14.00" fill="#000000">walker </text>
<text text-anchor="middle" x="744.9452" y="-221.8" font-family="Arial" font-size="14.00" fill="#000000">: X86PagetableWalker</text>
</a>
</g>
</g>
<g id="clust9" class="cluster">
<title>cluster_system_cpu_mmu_dtb</title>
<g id="a_clust9"><a xlink:title="entry_type=data&#10;eventq_index=0&#10;&#10;ext_level=Null&#10;size=64&#10;system=system&#10;walker=system.cpu.mmu.dtb.walker">
<path fill="#9f9c95" stroke="#000000" d="M853.4452,-154C853.4452,-154 1006.4452,-154 1006.4452,-154 1012.4452,-154 1018.4452,-160 1018.4452,-166 1018.4452,-166 1018.4452,-286 1018.4452,-286 1018.4452,-292 1012.4452,-298 1006.4452,-298 1006.4452,-298 853.4452,-298 853.4452,-298 847.4452,-298 841.4452,-292 841.4452,-286 841.4452,-286 841.4452,-166 841.4452,-166 841.4452,-160 847.4452,-154 853.4452,-154"/>
<text text-anchor="middle" x="929.9452" y="-282.8" font-family="Arial" font-size="14.00" fill="#000000">dtb </text>
<text text-anchor="middle" x="929.9452" y="-267.8" font-family="Arial" font-size="14.00" fill="#000000">: X86TLB</text>
</a>
</g>
</g>
<g id="clust10" class="cluster">
<title>cluster_system_cpu_mmu_dtb_walker</title>
<g id="a_clust10"><a xlink:title="clk_domain=system.cpu_clk_domain&#10;eventq_index=0&#10;&#10;um_squash_per_cycle=4&#10;power_model=&#10;power_state=system.cpu.mmu.dtb.walker.power_state&#10;system=system">
<path fill="#84827c" stroke="#000000" d="M861.4452,-162C861.4452,-162 998.4452,-162 998.4452,-162 1004.4452,-162 1010.4452,-168 1010.4452,-174 1010.4452,-174 1010.4452,-240 1010.4452,-240 1010.4452,-246 1004.4452,-252 998.4452,-252 998.4452,-252 861.4452,-252 861.4452,-252 855.4452,-252 849.4452,-246 849.4452,-240 849.4452,-240 849.4452,-174 849.4452,-174 849.4452,-168 855.4452,-162 861.4452,-162"/>
<text text-anchor="middle" x="929.9452" y="-236.8" font-family="Arial" font-size="14.00" fill="#000000">walker </text>
<text text-anchor="middle" x="929.9452" y="-221.8" font-family="Arial" font-size="14.00" fill="#000000">: X86PagetableWalker</text>
</a>
</g>
</g>
<g id="clust17" class="cluster">
<title>cluster_system_cpu_icache</title>
<g id="a_clust17"><a xlink:title="addr_ranges=0:18446744073709551615&#10;assoc=2&#10;clk_domain=system.cpu_clk_domain&#10;clusivity=mostly_incl&#10;compressor=Null&#10;data_latency=2&#10;demand_mshr_reserve=1&#10;eventq_index=0&#10;is_read_only=true&#10;max_miss_count=0&#10;move_contractions=true&#10;mshrs=4&#10;power_model=&#10;power_state=system.cpu.icache.power_state&#10;prefetch_on_access=false&#10;prefetch_on_pf_hit=false&#10;prefetcher=Null&#10;&#13;eplace_expansions=true&#10;&#13;eplacement_policy=system.cpu.icache.replacement_policy&#10;&#13;esponse_latency=2&#10;sequential_access=false&#10;size=32768&#10;system=system&#10;tag_latency=2&#10;tags=system.cpu.icache.tags&#10;tgts_per_mshr=20&#10;warmup_percentage=0&#10;write_allocator=Null&#10;write_buffers=8&#10;writeback_clean=true">
<path fill="#bab6ae" stroke="#000000" d="M120.4452,-32C120.4452,-32 290.4452,-32 290.4452,-32 296.4452,-32 302.4452,-38 302.4452,-44 302.4452,-44 302.4452,-110 302.4452,-110 302.4452,-116 296.4452,-122 290.4452,-122 290.4452,-122 120.4452,-122 120.4452,-122 114.4452,-122 108.4452,-116 108.4452,-110 108.4452,-110 108.4452,-44 108.4452,-44 108.4452,-38 114.4452,-32 120.4452,-32"/>
<text text-anchor="middle" x="205.4452" y="-106.8" font-family="Arial" font-size="14.00" fill="#000000">icache </text>
<text text-anchor="middle" x="205.4452" y="-91.8" font-family="Arial" font-size="14.00" fill="#000000">: L1_ICache</text>
</a>
</g>
</g>
<g id="clust23" class="cluster">
<title>cluster_system_cpu_dcache</title>
<g id="a_clust23"><a xlink:title="addr_ranges=0:18446744073709551615&#10;assoc=2&#10;clk_domain=system.cpu_clk_domain&#10;clusivity=mostly_incl&#10;compressor=Null&#10;data_latency=2&#10;demand_mshr_reserve=1&#10;eventq_index=0&#10;is_read_only=false&#10;max_miss_count=0&#10;move_contractions=true&#10;mshrs=4&#10;power_model=&#10;power_state=system.cpu.dcache.power_state&#10;prefetch_on_access=false&#10;prefetch_on_pf_hit=false&#10;prefetcher=Null&#10;&#13;eplace_expansions=true&#10;&#13;eplacement_policy=system.cpu.dcache.replacement_policy&#10;&#13;esponse_latency=2&#10;sequential_access=false&#10;size=32768&#10;system=system&#10;tag_latency=2&#10;tags=system.cpu.dcache.tags&#10;tgts_per_mshr=20&#10;warmup_percentage=0&#10;write_allocator=Null&#10;write_buffers=8&#10;writeback_clean=false">
<path fill="#bab6ae" stroke="#000000" d="M322.4452,-32C322.4452,-32 492.4452,-32 492.4452,-32 498.4452,-32 504.4452,-38 504.4452,-44 504.4452,-44 504.4452,-110 504.4452,-110 504.4452,-116 498.4452,-122 492.4452,-122 492.4452,-122 322.4452,-122 322.4452,-122 316.4452,-122 310.4452,-116 310.4452,-110 310.4452,-110 310.4452,-44 310.4452,-44 310.4452,-38 316.4452,-32 322.4452,-32"/>
<text text-anchor="middle" x="407.4452" y="-106.8" font-family="Arial" font-size="14.00" fill="#000000">dcache </text>
<text text-anchor="middle" x="407.4452" y="-91.8" font-family="Arial" font-size="14.00" fill="#000000">: L1_DCache</text>
</a>
</g>
</g>
<g id="clust29" class="cluster">
<title>cluster_system_cpu_itb_walker_cache</title>
<g id="a_clust29"><a xlink:title="addr_ranges=0:18446744073709551615&#10;assoc=2&#10;clk_domain=system.cpu_clk_domain&#10;clusivity=mostly_incl&#10;compressor=Null&#10;data_latency=2&#10;demand_mshr_reserve=1&#10;eventq_index=0&#10;is_read_only=false&#10;max_miss_count=0&#10;move_contractions=true&#10;mshrs=10&#10;power_model=&#10;power_state=system.cpu.itb_walker_cache.power_state&#10;prefetch_on_access=false&#10;prefetch_on_pf_hit=false&#10;prefetcher=Null&#10;&#13;eplace_expansions=true&#10;&#13;eplacement_policy=system.cpu.itb_walker_cache.replacement_policy&#10;&#13;esponse_latency=2&#10;sequential_access=false&#10;size=1024&#10;system=system&#10;tag_latency=2&#10;tags=system.cpu.itb_walker_cache.tags&#10;tgts_per_mshr=12&#10;warmup_percentage=0&#10;write_allocator=Null&#10;write_buffers=8&#10;writeback_clean=false">
<path fill="#bab6ae" stroke="#000000" d="M535.4452,-32C535.4452,-32 705.4452,-32 705.4452,-32 711.4452,-32 717.4452,-38 717.4452,-44 717.4452,-44 717.4452,-110 717.4452,-110 717.4452,-116 711.4452,-122 705.4452,-122 705.4452,-122 535.4452,-122 535.4452,-122 529.4452,-122 523.4452,-116 523.4452,-110 523.4452,-110 523.4452,-44 523.4452,-44 523.4452,-38 529.4452,-32 535.4452,-32"/>
<text text-anchor="middle" x="620.4452" y="-106.8" font-family="Arial" font-size="14.00" fill="#000000">itb_walker_cache </text>
<text text-anchor="middle" x="620.4452" y="-91.8" font-family="Arial" font-size="14.00" fill="#000000">: PageTableWalkerCache</text>
</a>
</g>
</g>
<g id="clust35" class="cluster">
<title>cluster_system_cpu_dtb_walker_cache</title>
<g id="a_clust35"><a xlink:title="addr_ranges=0:18446744073709551615&#10;assoc=2&#10;clk_domain=system.cpu_clk_domain&#10;clusivity=mostly_incl&#10;compressor=Null&#10;data_latency=2&#10;demand_mshr_reserve=1&#10;eventq_index=0&#10;is_read_only=false&#10;max_miss_count=0&#10;move_contractions=true&#10;mshrs=10&#10;power_model=&#10;power_state=system.cpu.dtb_walker_cache.power_state&#10;prefetch_on_access=false&#10;prefetch_on_pf_hit=false&#10;prefetcher=Null&#10;&#13;eplace_expansions=true&#10;&#13;eplacement_policy=system.cpu.dtb_walker_cache.replacement_policy&#10;&#13;esponse_latency=2&#10;sequential_access=false&#10;size=1024&#10;system=system&#10;tag_latency=2&#10;tags=system.cpu.dtb_walker_cache.tags&#10;tgts_per_mshr=12&#10;warmup_percentage=0&#10;write_allocator=Null&#10;write_buffers=8&#10;writeback_clean=false">
<path fill="#bab6ae" stroke="#000000" d="M742.4452,-32C742.4452,-32 912.4452,-32 912.4452,-32 918.4452,-32 924.4452,-38 924.4452,-44 924.4452,-44 924.4452,-110 924.4452,-110 924.4452,-116 918.4452,-122 912.4452,-122 912.4452,-122 742.4452,-122 742.4452,-122 736.4452,-122 730.4452,-116 730.4452,-110 730.4452,-110 730.4452,-44 730.4452,-44 730.4452,-38 736.4452,-32 742.4452,-32"/>
<text text-anchor="middle" x="827.4452" y="-106.8" font-family="Arial" font-size="14.00" fill="#000000">dtb_walker_cache </text>
<text text-anchor="middle" x="827.4452" y="-91.8" font-family="Arial" font-size="14.00" fill="#000000">: PageTableWalkerCache</text>
</a>
</g>
</g>
<g id="clust41" class="cluster">
<title>cluster_system_cpu_interrupts</title>
<g id="a_clust41"><a xlink:title="clk_domain=system.cpu.interrupts.clk_domain&#10;eventq_index=0&#10;int_latency=1000&#10;pio_latency=100000&#10;system=system">
<path fill="#bab6ae" stroke="#000000" d="M338.4452,-162C338.4452,-162 628.4452,-162 628.4452,-162 634.4452,-162 640.4452,-168 640.4452,-174 640.4452,-174 640.4452,-240 640.4452,-240 640.4452,-246 634.4452,-252 628.4452,-252 628.4452,-252 338.4452,-252 338.4452,-252 332.4452,-252 326.4452,-246 326.4452,-240 326.4452,-240 326.4452,-174 326.4452,-174 326.4452,-168 332.4452,-162 338.4452,-162"/>
<text text-anchor="middle" x="483.4452" y="-236.8" font-family="Arial" font-size="14.00" fill="#000000">interrupts </text>
<text text-anchor="middle" x="483.4452" y="-221.8" font-family="Arial" font-size="14.00" fill="#000000">: X86LocalApic</text>
</a>
</g>
</g>
<g id="clust47" class="cluster">
<title>cluster_system_membus</title>
<g id="a_clust47"><a xlink:title="clk_domain=system.clk_domain&#10;eventq_index=0&#10;forward_latency=4&#10;frontend_latency=3&#10;header_latency=1&#10;max_outstanding_snoops=512&#10;max_routing_table_size=512&#10;point_of_coherency=true&#10;point_of_unification=true&#10;power_model=&#10;power_state=system.membus.power_state&#10;&#13;esponse_latency=2&#10;snoop_filter=system.membus.snoop_filter&#10;snoop_response_latency=4&#10;system=system&#10;use_default_range=false&#10;width=16">
<path fill="#6f798c" stroke="#000000" d="M164.4452,-398C164.4452,-398 416.4452,-398 416.4452,-398 422.4452,-398 428.4452,-404 428.4452,-410 428.4452,-410 428.4452,-476 428.4452,-476 428.4452,-482 422.4452,-488 416.4452,-488 416.4452,-488 164.4452,-488 164.4452,-488 158.4452,-488 152.4452,-482 152.4452,-476 152.4452,-476 152.4452,-410 152.4452,-410 152.4452,-404 158.4452,-398 164.4452,-398"/>
<text text-anchor="middle" x="290.4452" y="-472.8" font-family="Arial" font-size="14.00" fill="#000000">membus </text>
<text text-anchor="middle" x="290.4452" y="-457.8" font-family="Arial" font-size="14.00" fill="#000000">: SystemXBar</text>
</a>
</g>
</g>
<g id="clust50" class="cluster">
<title>cluster_system_mem_ctrls</title>
<g id="a_clust50"><a xlink:title="clk_domain=system.clk_domain&#10;command_window=10000&#10;disable_sanity_check=false&#10;dram=system.mem_ctrls.dram&#10;eventq_index=0&#10;mem_sched_policy=frfcfs&#10;min_reads_per_switch=16&#10;min_writes_per_switch=16&#10;power_model=&#10;power_state=system.mem_ctrls.power_state&#10;qos_policy=Null&#10;qos_priorities=1&#10;qos_priority_escalation=false&#10;qos_q_policy=fifo&#10;qos_requestors= &#160;&#160;&#160;&#160;&#160;&#160;&#160;&#160;&#160;&#160;&#160;&#160;&#160;&#160;&#10;qos_syncro_scheduler=false&#10;qos_turnaround_policy=Null&#10;static_backend_latency=10000&#10;static_frontend_latency=10000&#10;system=system&#10;write_high_thresh_perc=85&#10;write_low_thresh_perc=50">
<path fill="#bab6ae" stroke="#000000" d="M1054.4452,-162C1054.4452,-162 1117.4452,-162 1117.4452,-162 1123.4452,-162 1129.4452,-168 1129.4452,-174 1129.4452,-174 1129.4452,-240 1129.4452,-240 1129.4452,-246 1123.4452,-252 1117.4452,-252 1117.4452,-252 1054.4452,-252 1054.4452,-252 1048.4452,-252 1042.4452,-246 1042.4452,-240 1042.4452,-240 1042.4452,-174 1042.4452,-174 1042.4452,-168 1048.4452,-162 1054.4452,-162"/>
<text text-anchor="middle" x="1085.9452" y="-236.8" font-family="Arial" font-size="14.00" fill="#000000">mem_ctrls </text>
<text text-anchor="middle" x="1085.9452" y="-221.8" font-family="Arial" font-size="14.00" fill="#000000">: MemCtrl</text>
</a>
</g>
</g>
<!-- system_system_port -->
<g id="node1" class="node">
<title>system_system_port</title>
<path fill="#b6b8bc" stroke="#000000" d="M254.4452,-572C254.4452,-572 182.4452,-572 182.4452,-572 176.4452,-572 170.4452,-566 170.4452,-560 170.4452,-560 170.4452,-548 170.4452,-548 170.4452,-542 176.4452,-536 182.4452,-536 182.4452,-536 254.4452,-536 254.4452,-536 260.4452,-536 266.4452,-542 266.4452,-548 266.4452,-548 266.4452,-560 266.4452,-560 266.4452,-566 260.4452,-572 254.4452,-572"/>
<text text-anchor="middle" x="218.4452" y="-550.3" font-family="Arial" font-size="14.00" fill="#000000">system_port</text>
</g>
<!-- system_membus_cpu_side_ports -->
<g id="node17" class="node">
<title>system_membus_cpu_side_ports</title>
<path fill="#586070" stroke="#000000" d="M264.4452,-442C264.4452,-442 172.4452,-442 172.4452,-442 166.4452,-442 160.4452,-436 160.4452,-430 160.4452,-430 160.4452,-418 160.4452,-418 160.4452,-412 166.4452,-406 172.4452,-406 172.4452,-406 264.4452,-406 264.4452,-406 270.4452,-406 276.4452,-412 276.4452,-418 276.4452,-418 276.4452,-430 276.4452,-430 276.4452,-436 270.4452,-442 264.4452,-442"/>
<text text-anchor="middle" x="218.4452" y="-420.3" font-family="Arial" font-size="14.00" fill="#000000">cpu_side_ports</text>
</g>
<!-- system_system_port&#45;&gt;system_membus_cpu_side_ports -->
<g id="edge1" class="edge">
<title>system_system_port&#45;&gt;system_membus_cpu_side_ports</title>
<path fill="none" stroke="#000000" d="M218.4452,-535.9241C218.4452,-514.3139 218.4452,-477.8868 218.4452,-452.4801"/>
<polygon fill="#000000" stroke="#000000" points="221.9453,-452.3415 218.4452,-442.3415 214.9453,-452.3415 221.9453,-452.3415"/>
</g>
<!-- system_cpu_icache_port -->
<g id="node2" class="node">
<title>system_cpu_icache_port</title>
<path fill="#959ead" stroke="#000000" d="M188.4452,-206C188.4452,-206 120.4452,-206 120.4452,-206 114.4452,-206 108.4452,-200 108.4452,-194 108.4452,-194 108.4452,-182 108.4452,-182 108.4452,-176 114.4452,-170 120.4452,-170 120.4452,-170 188.4452,-170 188.4452,-170 194.4452,-170 200.4452,-176 200.4452,-182 200.4452,-182 200.4452,-194 200.4452,-194 200.4452,-200 194.4452,-206 188.4452,-206"/>
<text text-anchor="middle" x="154.4452" y="-184.3" font-family="Arial" font-size="14.00" fill="#000000">icache_port</text>
</g>
<!-- system_cpu_icache_cpu_side -->
<g id="node6" class="node">
<title>system_cpu_icache_cpu_side</title>
<path fill="#94918b" stroke="#000000" d="M282.4452,-76C282.4452,-76 230.4452,-76 230.4452,-76 224.4452,-76 218.4452,-70 218.4452,-64 218.4452,-64 218.4452,-52 218.4452,-52 218.4452,-46 224.4452,-40 230.4452,-40 230.4452,-40 282.4452,-40 282.4452,-40 288.4452,-40 294.4452,-46 294.4452,-52 294.4452,-52 294.4452,-64 294.4452,-64 294.4452,-70 288.4452,-76 282.4452,-76"/>
<text text-anchor="middle" x="256.4452" y="-54.3" font-family="Arial" font-size="14.00" fill="#000000">cpu_side</text>
</g>
<!-- system_cpu_icache_port&#45;&gt;system_cpu_icache_cpu_side -->
<g id="edge2" class="edge">
<title>system_cpu_icache_port&#45;&gt;system_cpu_icache_cpu_side</title>
<path fill="none" stroke="#000000" d="M170.1618,-169.7559C181.3328,-156.641 196.5752,-138.4439 209.4452,-122 218.9241,-109.889 229.0673,-96.1793 237.4957,-84.5642"/>
<polygon fill="#000000" stroke="#000000" points="240.553,-86.3087 243.5672,-76.1517 234.8769,-82.2121 240.553,-86.3087"/>
</g>
<!-- system_cpu_dcache_port -->
<g id="node3" class="node">
<title>system_cpu_dcache_port</title>
<path fill="#959ead" stroke="#000000" d="M304.4452,-206C304.4452,-206 230.4452,-206 230.4452,-206 224.4452,-206 218.4452,-200 218.4452,-194 218.4452,-194 218.4452,-182 218.4452,-182 218.4452,-176 224.4452,-170 230.4452,-170 230.4452,-170 304.4452,-170 304.4452,-170 310.4452,-170 316.4452,-176 316.4452,-182 316.4452,-182 316.4452,-194 316.4452,-194 316.4452,-200 310.4452,-206 304.4452,-206"/>
<text text-anchor="middle" x="267.4452" y="-184.3" font-family="Arial" font-size="14.00" fill="#000000">dcache_port</text>
</g>
<!-- system_cpu_dcache_cpu_side -->
<g id="node8" class="node">
<title>system_cpu_dcache_cpu_side</title>
<path fill="#94918b" stroke="#000000" d="M484.4452,-76C484.4452,-76 432.4452,-76 432.4452,-76 426.4452,-76 420.4452,-70 420.4452,-64 420.4452,-64 420.4452,-52 420.4452,-52 420.4452,-46 426.4452,-40 432.4452,-40 432.4452,-40 484.4452,-40 484.4452,-40 490.4452,-40 496.4452,-46 496.4452,-52 496.4452,-52 496.4452,-64 496.4452,-64 496.4452,-70 490.4452,-76 484.4452,-76"/>
<text text-anchor="middle" x="458.4452" y="-54.3" font-family="Arial" font-size="14.00" fill="#000000">cpu_side</text>
</g>
<!-- system_cpu_dcache_port&#45;&gt;system_cpu_dcache_cpu_side -->
<g id="edge3" class="edge">
<title>system_cpu_dcache_port&#45;&gt;system_cpu_dcache_cpu_side</title>
<path fill="none" stroke="#000000" d="M287.3291,-169.7943C297.2639,-161.5193 309.8358,-152.2126 322.4452,-146 359.1954,-127.8935 377.6413,-145.1456 411.4452,-122 425.0832,-112.6621 436.2561,-98.0323 444.2814,-85.116"/>
<polygon fill="#000000" stroke="#000000" points="447.5208,-86.5108 449.559,-76.1139 441.482,-82.9705 447.5208,-86.5108"/>
</g>
<!-- system_cpu_mmu_itb_walker_port -->
<g id="node4" class="node">
<title>system_cpu_mmu_itb_walker_port</title>
<path fill="#6a6863" stroke="#000000" d="M714.4452,-206C714.4452,-206 684.4452,-206 684.4452,-206 678.4452,-206 672.4452,-200 672.4452,-194 672.4452,-194 672.4452,-182 672.4452,-182 672.4452,-176 678.4452,-170 684.4452,-170 684.4452,-170 714.4452,-170 714.4452,-170 720.4452,-170 726.4452,-176 726.4452,-182 726.4452,-182 726.4452,-194 726.4452,-194 726.4452,-200 720.4452,-206 714.4452,-206"/>
<text text-anchor="middle" x="699.4452" y="-184.3" font-family="Arial" font-size="14.00" fill="#000000">port</text>
</g>
<!-- system_cpu_itb_walker_cache_cpu_side -->
<g id="node10" class="node">
<title>system_cpu_itb_walker_cache_cpu_side</title>
<path fill="#94918b" stroke="#000000" d="M697.4452,-76C697.4452,-76 645.4452,-76 645.4452,-76 639.4452,-76 633.4452,-70 633.4452,-64 633.4452,-64 633.4452,-52 633.4452,-52 633.4452,-46 639.4452,-40 645.4452,-40 645.4452,-40 697.4452,-40 697.4452,-40 703.4452,-40 709.4452,-46 709.4452,-52 709.4452,-52 709.4452,-64 709.4452,-64 709.4452,-70 703.4452,-76 697.4452,-76"/>
<text text-anchor="middle" x="671.4452" y="-54.3" font-family="Arial" font-size="14.00" fill="#000000">cpu_side</text>
</g>
<!-- system_cpu_mmu_itb_walker_port&#45;&gt;system_cpu_itb_walker_cache_cpu_side -->
<g id="edge4" class="edge">
<title>system_cpu_mmu_itb_walker_port&#45;&gt;system_cpu_itb_walker_cache_cpu_side</title>
<path fill="none" stroke="#000000" d="M695.552,-169.9241C690.8767,-148.2174 682.9815,-111.5613 677.5063,-86.1405"/>
<polygon fill="#000000" stroke="#000000" points="680.9229,-85.3804 675.3957,-76.3415 674.0798,-86.8543 680.9229,-85.3804"/>
</g>
<!-- system_cpu_mmu_dtb_walker_port -->
<g id="node5" class="node">
<title>system_cpu_mmu_dtb_walker_port</title>
<path fill="#6a6863" stroke="#000000" d="M899.4452,-206C899.4452,-206 869.4452,-206 869.4452,-206 863.4452,-206 857.4452,-200 857.4452,-194 857.4452,-194 857.4452,-182 857.4452,-182 857.4452,-176 863.4452,-170 869.4452,-170 869.4452,-170 899.4452,-170 899.4452,-170 905.4452,-170 911.4452,-176 911.4452,-182 911.4452,-182 911.4452,-194 911.4452,-194 911.4452,-200 905.4452,-206 899.4452,-206"/>
<text text-anchor="middle" x="884.4452" y="-184.3" font-family="Arial" font-size="14.00" fill="#000000">port</text>
</g>
<!-- system_cpu_dtb_walker_cache_cpu_side -->
<g id="node12" class="node">
<title>system_cpu_dtb_walker_cache_cpu_side</title>
<path fill="#94918b" stroke="#000000" d="M904.4452,-76C904.4452,-76 852.4452,-76 852.4452,-76 846.4452,-76 840.4452,-70 840.4452,-64 840.4452,-64 840.4452,-52 840.4452,-52 840.4452,-46 846.4452,-40 852.4452,-40 852.4452,-40 904.4452,-40 904.4452,-40 910.4452,-40 916.4452,-46 916.4452,-52 916.4452,-52 916.4452,-64 916.4452,-64 916.4452,-70 910.4452,-76 904.4452,-76"/>
<text text-anchor="middle" x="878.4452" y="-54.3" font-family="Arial" font-size="14.00" fill="#000000">cpu_side</text>
</g>
<!-- system_cpu_mmu_dtb_walker_port&#45;&gt;system_cpu_dtb_walker_cache_cpu_side -->
<g id="edge5" class="edge">
<title>system_cpu_mmu_dtb_walker_port&#45;&gt;system_cpu_dtb_walker_cache_cpu_side</title>
<path fill="none" stroke="#000000" d="M883.611,-169.9241C882.6136,-148.3139 880.9323,-111.8868 879.7597,-86.4801"/>
<polygon fill="#000000" stroke="#000000" points="883.2492,-86.1695 879.2918,-76.3415 876.2566,-86.4923 883.2492,-86.1695"/>
</g>
<!-- system_cpu_icache_mem_side -->
<g id="node7" class="node">
<title>system_cpu_icache_mem_side</title>
<path fill="#94918b" stroke="#000000" d="M188.4452,-76C188.4452,-76 128.4452,-76 128.4452,-76 122.4452,-76 116.4452,-70 116.4452,-64 116.4452,-64 116.4452,-52 116.4452,-52 116.4452,-46 122.4452,-40 128.4452,-40 128.4452,-40 188.4452,-40 188.4452,-40 194.4452,-40 200.4452,-46 200.4452,-52 200.4452,-52 200.4452,-64 200.4452,-64 200.4452,-70 194.4452,-76 188.4452,-76"/>
<text text-anchor="middle" x="158.4452" y="-54.3" font-family="Arial" font-size="14.00" fill="#000000">mem_side</text>
</g>
<!-- system_cpu_dcache_mem_side -->
<g id="node9" class="node">
<title>system_cpu_dcache_mem_side</title>
<path fill="#94918b" stroke="#000000" d="M390.4452,-76C390.4452,-76 330.4452,-76 330.4452,-76 324.4452,-76 318.4452,-70 318.4452,-64 318.4452,-64 318.4452,-52 318.4452,-52 318.4452,-46 324.4452,-40 330.4452,-40 330.4452,-40 390.4452,-40 390.4452,-40 396.4452,-40 402.4452,-46 402.4452,-52 402.4452,-52 402.4452,-64 402.4452,-64 402.4452,-70 396.4452,-76 390.4452,-76"/>
<text text-anchor="middle" x="360.4452" y="-54.3" font-family="Arial" font-size="14.00" fill="#000000">mem_side</text>
</g>
<!-- system_cpu_itb_walker_cache_mem_side -->
<g id="node11" class="node">
<title>system_cpu_itb_walker_cache_mem_side</title>
<path fill="#94918b" stroke="#000000" d="M603.4452,-76C603.4452,-76 543.4452,-76 543.4452,-76 537.4452,-76 531.4452,-70 531.4452,-64 531.4452,-64 531.4452,-52 531.4452,-52 531.4452,-46 537.4452,-40 543.4452,-40 543.4452,-40 603.4452,-40 603.4452,-40 609.4452,-40 615.4452,-46 615.4452,-52 615.4452,-52 615.4452,-64 615.4452,-64 615.4452,-70 609.4452,-76 603.4452,-76"/>
<text text-anchor="middle" x="573.4452" y="-54.3" font-family="Arial" font-size="14.00" fill="#000000">mem_side</text>
</g>
<!-- system_cpu_dtb_walker_cache_mem_side -->
<g id="node13" class="node">
<title>system_cpu_dtb_walker_cache_mem_side</title>
<path fill="#94918b" stroke="#000000" d="M810.4452,-76C810.4452,-76 750.4452,-76 750.4452,-76 744.4452,-76 738.4452,-70 738.4452,-64 738.4452,-64 738.4452,-52 738.4452,-52 738.4452,-46 744.4452,-40 750.4452,-40 750.4452,-40 810.4452,-40 810.4452,-40 816.4452,-40 822.4452,-46 822.4452,-52 822.4452,-52 822.4452,-64 822.4452,-64 822.4452,-70 816.4452,-76 810.4452,-76"/>
<text text-anchor="middle" x="780.4452" y="-54.3" font-family="Arial" font-size="14.00" fill="#000000">mem_side</text>
</g>
<!-- system_cpu_interrupts_int_requestor -->
<g id="node14" class="node">
<title>system_cpu_interrupts_int_requestor</title>
<path fill="#94918b" stroke="#000000" d="M423.9452,-206C423.9452,-206 346.9452,-206 346.9452,-206 340.9452,-206 334.9452,-200 334.9452,-194 334.9452,-194 334.9452,-182 334.9452,-182 334.9452,-176 340.9452,-170 346.9452,-170 346.9452,-170 423.9452,-170 423.9452,-170 429.9452,-170 435.9452,-176 435.9452,-182 435.9452,-182 435.9452,-194 435.9452,-194 435.9452,-200 429.9452,-206 423.9452,-206"/>
<text text-anchor="middle" x="385.4452" y="-184.3" font-family="Arial" font-size="14.00" fill="#000000">int_requestor</text>
</g>
<!-- system_cpu_interrupts_int_responder -->
<g id="node15" class="node">
<title>system_cpu_interrupts_int_responder</title>
<path fill="#94918b" stroke="#000000" d="M620.4452,-206C620.4452,-206 538.4452,-206 538.4452,-206 532.4452,-206 526.4452,-200 526.4452,-194 526.4452,-194 526.4452,-182 526.4452,-182 526.4452,-176 532.4452,-170 538.4452,-170 538.4452,-170 620.4452,-170 620.4452,-170 626.4452,-170 632.4452,-176 632.4452,-182 632.4452,-182 632.4452,-194 632.4452,-194 632.4452,-200 626.4452,-206 620.4452,-206"/>
<text text-anchor="middle" x="579.4452" y="-184.3" font-family="Arial" font-size="14.00" fill="#000000">int_responder</text>
</g>
<!-- system_cpu_interrupts_pio -->
<g id="node16" class="node">
<title>system_cpu_interrupts_pio</title>
<path fill="#94918b" stroke="#000000" d="M496.4452,-206C496.4452,-206 466.4452,-206 466.4452,-206 460.4452,-206 454.4452,-200 454.4452,-194 454.4452,-194 454.4452,-182 454.4452,-182 454.4452,-176 460.4452,-170 466.4452,-170 466.4452,-170 496.4452,-170 496.4452,-170 502.4452,-170 508.4452,-176 508.4452,-182 508.4452,-182 508.4452,-194 508.4452,-194 508.4452,-200 502.4452,-206 496.4452,-206"/>
<text text-anchor="middle" x="481.4452" y="-184.3" font-family="Arial" font-size="14.00" fill="#000000">pio</text>
</g>
<!-- system_membus_cpu_side_ports&#45;&gt;system_cpu_icache_mem_side -->
<g id="edge6" class="edge">
<title>system_membus_cpu_side_ports&#45;&gt;system_cpu_icache_mem_side</title>
<path fill="none" stroke="#000000" d="M150.1707,-419.4321C107.4118,-414.9863 57.9404,-406.3874 44.4452,-390 -24.4927,-306.2877 -3.3779,-243.3301 44.4452,-146 60.0468,-114.2475 93.2301,-90.711 119.7925,-76.0089"/>
<polygon fill="#000000" stroke="#000000" points="150.0098,-422.933 160.3031,-420.4231 150.6913,-415.9662 150.0098,-422.933"/>
</g>
<!-- system_membus_cpu_side_ports&#45;&gt;system_cpu_dcache_mem_side -->
<g id="edge7" class="edge">
<title>system_membus_cpu_side_ports&#45;&gt;system_cpu_dcache_mem_side</title>
<path fill="none" stroke="#000000" d="M150.0326,-417.2966C114.1758,-412.2178 75.4559,-403.7067 64.4452,-390 30.4878,-347.7277 28.0454,-186.1883 64.4452,-146 100.7238,-105.9456 258.6208,-147.1658 306.4452,-122 326.0005,-111.7098 341.371,-91.0767 350.6322,-76.0106"/>
<polygon fill="#000000" stroke="#000000" points="149.6681,-420.779 160.0447,-418.6395 150.5988,-413.8411 149.6681,-420.779"/>
</g>
<!-- system_membus_cpu_side_ports&#45;&gt;system_cpu_itb_walker_cache_mem_side -->
<g id="edge8" class="edge">
<title>system_membus_cpu_side_ports&#45;&gt;system_cpu_itb_walker_cache_mem_side</title>
<path fill="none" stroke="#000000" d="M150.2611,-414.5784C121.6677,-409.0999 93.0472,-401.0571 84.4452,-390 51.1513,-347.2033 47.2035,-185.4094 84.4452,-146 116.8546,-111.7042 465.304,-141.1155 508.4452,-122 530.4534,-112.2484 549.2419,-91.5143 560.8754,-76.2773"/>
<polygon fill="#000000" stroke="#000000" points="149.8763,-418.0657 160.341,-416.4099 151.1279,-411.1785 149.8763,-418.0657"/>
</g>
<!-- system_membus_cpu_side_ports&#45;&gt;system_cpu_dtb_walker_cache_mem_side -->
<g id="edge9" class="edge">
<title>system_membus_cpu_side_ports&#45;&gt;system_cpu_dtb_walker_cache_mem_side</title>
<path fill="none" stroke="#000000" d="M150.2422,-412.4777C126.3204,-406.9379 103.6039,-399.4265 96.4452,-390 80.0487,-368.4091 77.6462,-165.5348 96.4452,-146 144.634,-95.9252 658.3401,-151.1098 721.4452,-122 742.4407,-112.315 759.4144,-91.3462 769.6742,-76.0408"/>
<polygon fill="#000000" stroke="#000000" points="149.6431,-415.9295 160.161,-414.6551 151.144,-409.0923 149.6431,-415.9295"/>
</g>
<!-- system_membus_cpu_side_ports&#45;&gt;system_cpu_interrupts_int_requestor -->
<g id="edge10" class="edge">
<title>system_membus_cpu_side_ports&#45;&gt;system_cpu_interrupts_int_requestor</title>
<path fill="none" stroke="#000000" d="M271.4971,-402.6194C276.5093,-400.9322 281.5469,-399.3587 286.4452,-398 306.0198,-392.5706 316.4821,-403.7385 331.4452,-390 384.7905,-341.0205 387.7865,-245.7048 386.5106,-206.0177"/>
<polygon fill="#000000" stroke="#000000" points="270.2085,-399.3623 261.9329,-405.9779 272.5277,-405.967 270.2085,-399.3623"/>
</g>
<!-- system_membus_mem_side_ports -->
<g id="node18" class="node">
<title>system_membus_mem_side_ports</title>
<path fill="#586070" stroke="#000000" d="M407.9452,-442C407.9452,-442 306.9452,-442 306.9452,-442 300.9452,-442 294.9452,-436 294.9452,-430 294.9452,-430 294.9452,-418 294.9452,-418 294.9452,-412 300.9452,-406 306.9452,-406 306.9452,-406 407.9452,-406 407.9452,-406 413.9452,-406 419.9452,-412 419.9452,-418 419.9452,-418 419.9452,-430 419.9452,-430 419.9452,-436 413.9452,-442 407.9452,-442"/>
<text text-anchor="middle" x="357.4452" y="-420.3" font-family="Arial" font-size="14.00" fill="#000000">mem_side_ports</text>
</g>
<!-- system_membus_mem_side_ports&#45;&gt;system_cpu_interrupts_int_responder -->
<g id="edge12" class="edge">
<title>system_membus_mem_side_ports&#45;&gt;system_cpu_interrupts_int_responder</title>
<path fill="none" stroke="#000000" d="M420.1422,-417.245C458.6086,-411.8832 503.1481,-403.0858 517.4452,-390 567.0889,-344.5625 577.4211,-260.5132 579.2903,-216.5253"/>
<polygon fill="#000000" stroke="#000000" points="582.797,-216.3545 579.602,-206.2529 575.8002,-216.1422 582.797,-216.3545"/>
</g>
<!-- system_membus_mem_side_ports&#45;&gt;system_cpu_interrupts_pio -->
<g id="edge11" class="edge">
<title>system_membus_mem_side_ports&#45;&gt;system_cpu_interrupts_pio</title>
<path fill="none" stroke="#000000" d="M420.0004,-409.1829C429.6695,-404.4515 438.675,-398.2159 445.4452,-390 486.7077,-339.9272 487.478,-258.8487 484.4881,-216.2343"/>
<polygon fill="#000000" stroke="#000000" points="487.9564,-215.7044 483.6461,-206.026 480.9801,-216.2799 487.9564,-215.7044"/>
</g>
<!-- system_mem_ctrls_port -->
<g id="node19" class="node">
<title>system_mem_ctrls_port</title>
<path fill="#94918b" stroke="#000000" d="M1092.4452,-206C1092.4452,-206 1062.4452,-206 1062.4452,-206 1056.4452,-206 1050.4452,-200 1050.4452,-194 1050.4452,-194 1050.4452,-182 1050.4452,-182 1050.4452,-176 1056.4452,-170 1062.4452,-170 1062.4452,-170 1092.4452,-170 1092.4452,-170 1098.4452,-170 1104.4452,-176 1104.4452,-182 1104.4452,-182 1104.4452,-194 1104.4452,-194 1104.4452,-200 1098.4452,-206 1092.4452,-206"/>
<text text-anchor="middle" x="1077.4452" y="-184.3" font-family="Arial" font-size="14.00" fill="#000000">port</text>
</g>
<!-- system_membus_mem_side_ports&#45;&gt;system_mem_ctrls_port -->
<g id="edge13" class="edge">
<title>system_membus_mem_side_ports&#45;&gt;system_mem_ctrls_port</title>
<path fill="none" stroke="#000000" d="M420.1841,-422.6795C579.9482,-419.0603 991.2129,-408.0341 1014.4452,-390 1068.0619,-348.3802 1077.1012,-261.614 1077.9803,-216.5496"/>
<polygon fill="#000000" stroke="#000000" points="1081.4819,-216.326 1078.0517,-206.3018 1074.482,-216.2771 1081.4819,-216.326"/>
</g>
</g>
</svg>
